<svg width="164" height="68" viewBox="0 0 164 68" fill="none" xmlns="http://www.w3.org/2000/svg">
<g clip-path="url(#clip0_62_366)">
<mask id="mask0_62_366" style="mask-type:luminance" maskUnits="userSpaceOnUse" x="0" y="0" width="164" height="68">
<path d="M164 0.5H0V67.5H164V0.5Z" fill="white"/>
</mask>
<g mask="url(#mask0_62_366)">
<g opacity="0.5">
<path d="M5.64135 11.3772C5.25245 11.4577 5.26562 14.8272 5.57934 17.9425C5.89308 21.0579 6.35335 22.587 5.51358 24.2961C5.35014 24.6286 4.7208 25.9121 3.66877 26.037C2.61672 26.1619 1.80515 25.103 1.57783 24.815C0.281564 23.1799 0.664808 21.3649 0.480702 16.5807C0.315381 12.2879 -0.0565911 12.146 0.159453 9.59188C0.535181 5.03215 1.87841 3.75298 2.29548 3.39717C2.87644 2.85949 3.59449 2.5449 4.34508 2.49922C6.10536 2.45686 7.4129 4.25491 8.35034 5.57856C10.5484 8.68966 10.9654 11.7605 11.6605 11.6419C11.9123 11.5996 12.0175 11.1697 12.2034 10.5703C12.4646 9.72317 13.665 6.09956 15.647 3.91818C16.1693 3.34424 16.9113 2.55005 18.0592 2.37639C18.9969 2.26344 19.9387 2.54226 20.7062 3.15999C21.6887 3.97324 22.1227 5.23759 22.4816 7.56511C23.0733 11.4259 22.4816 11.8304 22.831 16.0365C22.8404 16.1402 23.2068 20.431 22.7859 23.4488C22.7219 24.0944 22.4687 24.6972 22.0663 25.1622C21.3318 25.948 20.3211 25.8843 20.013 25.8484C19.5919 25.7982 19.1858 25.6438 18.8238 25.3962C18.4617 25.1489 18.1525 24.8143 17.9183 24.4168C17.5837 23.7785 17.4377 23.0368 17.5012 22.2989C17.6722 18.6986 18.0085 12.2879 17.5012 12.1333C17.1368 12.0232 15.8104 14.8674 14.9688 17.2796C14.6231 18.275 14.4052 19.0544 13.6988 19.641C13.2924 19.9573 12.8278 20.1658 12.3398 20.2509C11.8518 20.336 11.353 20.2955 10.8809 20.1324C9.94156 19.802 9.35355 19.0163 8.57953 17.646C6.51679 14.0076 5.99641 11.3052 5.64135 11.3772Z" fill="#874995"/>
<path d="M26.5506 2.9757C27.3021 2.46108 28.2414 2.71098 28.4293 2.76392C29.1096 2.9454 29.7096 3.39634 30.12 4.03464C30.6441 4.9093 30.5522 5.86655 30.4957 6.78783C30.3924 8.48211 30.5803 10.1764 30.4957 11.8706C30.2648 16.5151 30.8527 19.9947 30.12 23.7305C30.0392 24.1541 29.8495 25.0308 29.1808 25.6367C28.4463 26.3016 27.3021 26.4837 26.5506 26.0602C25.5117 25.4905 25.2825 23.8596 25.0478 21.1891C24.6457 16.6061 24.7303 14.7022 25.4235 5.94068C25.4891 5.1105 25.6244 3.61742 26.5506 2.9757Z" fill="#874995"/>
<path d="M33.3138 2.97573C34.7829 1.01885 37.2701 0.796479 38.9496 0.646113C41.446 0.446223 43.937 1.11129 46.0884 2.55217C47.2534 3.31459 48.5308 4.15325 49.4702 5.94071C49.6581 6.31557 51.0856 9.11748 50.2215 12.2942C50.1181 12.6712 49.5246 14.8526 47.7793 16.3181C46.8794 17.0742 45.8218 17.5126 45.9006 18.0124C45.9401 18.2623 46.2274 18.3004 46.8399 18.6478C47.2853 18.8998 47.8264 19.3805 48.9066 20.342C49.8308 21.1637 50.2967 21.581 50.4093 21.8245C50.6191 22.2917 50.7121 22.8141 50.6791 23.3363C50.6461 23.8584 50.4879 24.3606 50.2215 24.7895C49.4119 26.0157 47.9464 25.895 47.5914 25.8484C46.6108 25.7213 46.3778 25.1664 44.5857 23.7306C43.0733 22.5192 43.4584 23.0825 40.4526 20.9774C39.1978 20.0964 38.6904 19.6876 38.386 19.9185C37.9447 20.2531 38.6134 21.4454 38.386 23.5187C38.2678 24.6031 38.11 26.037 37.259 26.6954C36.408 27.3541 34.9556 27.134 34.0651 26.4838C31.9987 24.9674 33.126 21.3861 32.7502 12.0825C32.5228 6.54217 31.9911 4.73779 33.3138 2.97573Z" fill="#874995"/>
<path d="M73.1411 6.36435C73.404 6.25211 74.411 5.82007 74.8318 4.67009C74.982 4.26015 75.0433 3.81575 75.0107 3.37375C74.9779 2.93177 74.8523 2.50494 74.6439 2.12867C74.3753 1.66698 73.8757 1.16506 72.5775 0.857971C69.3687 0.1019 66.4531 1.76229 66.19 1.91689C64.6741 2.80851 62.3238 4.18933 61.6814 7.2115C61.4688 8.28039 61.4768 9.39004 61.7049 10.4549C61.9329 11.5197 62.3747 12.5113 62.9964 13.3532C63.9696 14.6409 65.2508 15.2423 66.19 15.6828C67.8264 16.4516 69.0269 16.4728 70.323 17.8007C70.9525 18.4466 71.1158 18.8977 71.0745 19.2832C70.992 20.071 70.0733 20.4967 69.9473 20.5539C68.9631 20.9944 68.1439 20.4713 66.9415 20.1303C65.5344 19.73 64.4429 19.8105 62.9964 19.9185C61.4672 20.0329 59.5115 20.1769 57.924 21.6128C55.3165 23.97 55.4593 28.2247 55.4818 29.0252C55.5608 31.7467 56.6334 33.8836 57.1727 34.9551C58.1926 36.984 58.8727 37.2382 59.9906 39.6145C61.0502 41.8699 61.4295 43.6616 61.4936 43.6383C61.5893 43.6024 60.9092 39.4515 59.4269 34.3197C59.0512 33.0492 58.7187 31.9796 58.8633 30.5078C58.899 30.1478 59.2221 27.2273 61.1178 26.0603C61.8222 25.6262 62.3352 25.6876 64.8751 25.8485C68.112 26.0603 69.7427 26.1555 70.323 26.0603C71.4295 25.8782 74.1517 25.4249 75.5833 22.8836C76.8853 20.5708 76.6954 17.284 75.3954 15.4711C74.5707 14.3211 73.0001 13.3532 71.6381 12.5061C71.1872 12.2265 70.8998 12.0381 70.323 11.659C68.7413 10.6191 68.2566 10.221 67.8809 9.54112C67.662 9.16038 67.5326 8.72306 67.5051 8.27041C67.465 7.90384 67.5308 7.53246 67.693 7.2115C67.9918 6.71379 68.5891 6.62485 69.0081 6.57613C71.3844 6.30083 71.9914 6.85782 73.1411 6.36435Z" fill="#874995"/>
<path d="M83.6615 11.2353C83.2708 10.9537 84.2383 9.21916 84.2251 6.15251C84.2251 4.2041 83.8081 3.59628 83.6615 3.39932C83.2708 2.90538 82.7547 2.5591 82.1832 2.40753C81.6118 2.25596 81.0129 2.30647 80.4678 2.55219C79.4664 3.0414 79.0813 4.12787 78.9648 4.45825C78.7189 5.20198 78.6542 6.00633 78.7769 6.78788C78.7883 6.87682 78.7207 8.8231 78.5891 12.7178C78.4012 18.3089 78.3037 21.1045 78.0257 22.6717C77.9616 23.0275 77.7869 23.9635 78.2133 24.7895C78.7658 25.8591 79.9624 26.0432 80.0921 26.0603C80.7061 26.1286 81.3237 25.9824 81.8615 25.6414C82.3992 25.3004 82.831 24.7813 83.0978 24.1541C83.2857 23.6458 83.2857 23.1101 83.2857 22.0363C83.2857 20.6026 83.0548 20.107 83.2857 19.9185C83.5169 19.73 83.9451 19.9291 85.916 21.6128C87.9712 23.3705 88.2923 23.8684 89.1096 23.9425C89.5786 23.9799 90.0485 23.8832 90.4756 23.6609C90.9027 23.4388 91.2729 23.0985 91.5518 22.6717C92.1417 21.725 92.245 20.3675 91.7396 19.4949C91.5049 19.0904 91.2137 18.9125 90.8003 18.6478C88.4088 17.1145 87.2028 16.3648 87.2309 15.6828C87.2309 15.5494 87.2853 15.4456 88.7339 14.2003C89.4854 13.5544 89.8611 13.2325 90.2366 12.9296C91.982 11.5276 92.1154 11.6165 92.3033 11.2353C92.9044 9.98793 92.1529 7.55241 90.8003 6.99966C89.8761 6.62056 88.9443 7.23474 87.4187 8.27035C85.0574 9.87567 84.0466 11.5128 83.6615 11.2353Z" fill="#874995"/>
<path d="M100.381 22.0363C99.9472 22.5361 100.464 23.1715 100.005 24.1541C99.4796 25.2809 98.4012 25.6112 98.3146 25.6367C97.8487 25.7647 97.3614 25.7539 96.9002 25.6052C96.4392 25.4568 96.0202 25.1757 95.6846 24.7895C95.1098 24.1075 95.0138 23.2731 94.9331 22.4598C94.6231 19.3403 94.4692 17.7815 94.5573 16.5299C94.6963 14.5561 94.9331 11.2882 96.6239 7.63497C97.6233 5.48325 98.6698 3.23622 100.945 2.12858C101.527 1.84479 103.011 1.14802 104.702 1.70501C106.528 2.31072 107.494 4.03465 108.084 5.09356C108.386 5.63573 108.942 6.73701 109.399 8.90568C110.254 12.9635 109.562 15.0368 109.775 20.1302C109.82 21.1892 109.763 22.2481 109.775 23.307C109.789 24.7895 109.825 25.1622 109.587 25.6367C109.094 26.6151 107.984 27.1932 106.956 27.1191C105.497 27.0131 104.296 25.6662 104.138 24.3659C103.981 23.0656 105.048 22.0363 104.702 21.6127C104.493 21.3543 104.084 21.6763 103.011 21.8245C101.415 22.0469 100.815 21.5365 100.381 22.0363Z" fill="#874995"/>
<path d="M112.217 3.39937C112.529 2.6793 113.239 2.4294 114.095 2.12866C115.155 1.75593 116.184 1.67756 118.792 1.91688C120.612 2.08419 121.522 2.16679 122.174 2.34045C124.18 2.87203 126 3.35278 126.682 4.88185C127.466 6.63754 126.371 8.93963 125.179 11.4472C124.523 12.7864 123.769 14.0615 122.925 15.2593C122.102 16.4516 121.446 17.8113 120.483 18.8596C120.122 19.2514 119.611 19.7597 119.731 20.1303C119.805 20.3569 120.09 20.4501 121.046 20.5539C122.737 20.736 123.585 20.5962 124.804 20.9774C125.429 21.1723 125.613 21.2951 125.743 21.401C126.036 21.6459 126.274 21.9653 126.437 22.3332C126.601 22.7012 126.684 23.1074 126.682 23.5188C126.663 24.0031 126.532 24.473 126.301 24.8818C126.07 25.2907 125.748 25.6242 125.367 25.8485C124.732 26.2234 124.321 26.0157 122.737 26.0603C121.633 26.0921 121.48 26.2021 120.483 26.272C118.484 26.4117 116.329 26.5602 114.471 25.2131C113.932 24.8235 113.102 24.2092 112.78 23.0952C112.568 22.3604 112.54 21.2633 113.908 18.6478C114.969 16.6189 115.974 15.3991 118.604 11.8707C120.246 9.67241 120.969 8.65586 120.671 8.05862C120.496 7.71129 120.058 7.67104 118.604 7.63506C114.783 7.53975 114.253 7.72611 113.532 7.21147C112.397 6.40246 111.727 4.53241 112.217 3.39937Z" fill="#874995"/>
<path d="M130.816 6.7878C129.814 8.35218 129.168 10.1705 128.937 12.0824C128.433 16.3181 130.171 19.4948 130.816 20.5537C131.505 21.6805 133.213 24.4717 136.264 25.213C141.041 26.3735 144.894 21.4814 145.281 20.9773C148.099 17.2965 149.756 10.6274 146.596 5.94065C144.599 2.97568 141.223 1.61814 138.142 1.91676C133.925 2.3255 131.499 5.72252 130.816 6.7878Z" fill="#874995"/>
<path d="M151.292 3.39927C149.893 4.77164 150.475 6.76664 150.165 12.0824C150.094 13.3129 149.881 16.3075 149.602 19.4949C149.414 21.564 149.209 23.7305 150.353 25.213C150.645 25.6165 151.038 25.9116 151.48 26.0602C152.756 26.4605 154.311 25.408 154.674 24.1541C154.82 23.6458 154.642 23.5506 154.674 22.2481C154.708 20.8715 154.726 20.0879 155.05 19.9184C155.613 19.6219 156.451 21.5852 158.807 23.0951C159.761 23.705 160.53 24.1816 161.437 23.9424C162.521 23.6564 163.487 22.4365 163.504 21.1891C163.519 20.1175 162.827 19.3508 162.001 18.4359C160.31 16.5744 159.042 16.5553 158.995 15.6827C158.965 15.1491 159.429 14.8462 161.813 12.7178C163.541 11.176 163.797 10.888 163.879 10.3882C164.105 9.00731 162.808 7.14786 161.437 6.99961C160.686 6.91912 160.054 7.438 158.807 8.48209C156.639 10.2971 155.863 11.6927 155.425 11.4471C155.192 11.3158 155.237 10.8287 155.425 8.05852C155.589 5.51712 155.613 4.82247 155.237 4.03462C155.132 3.82284 154.661 2.82747 153.735 2.55214C152.547 2.19846 151.433 3.26161 151.292 3.39927Z" fill="#874995"/>
<path d="M63.5597 44.062C63.184 44.3245 63.2536 44.7143 62.8082 44.9091C62.2446 45.1527 61.4933 44.8181 60.7418 44.4855C60.3172 44.297 60.1144 44.1614 59.9903 44.2737C59.8024 44.4452 59.9171 45.0912 60.1782 45.5444C60.5914 46.2666 61.2753 46.3449 62.4325 46.815C63.1445 47.1032 63.8076 47.5287 64.4991 47.8741C66.4434 48.8461 67.7434 50.2207 70.6985 52.5333C73.7402 54.9138 73.603 54.4182 76.5224 56.7689C77.7904 57.7919 78.51 58.4442 79.9039 59.3103C81.1269 60.0706 82.3349 60.8098 84.0369 61.2165C85.5022 61.5679 86.6295 61.5044 87.9821 61.4281C89.951 61.3181 91.2866 61.244 92.8666 60.5811C93.6012 60.2718 96.6859 58.9799 98.3145 55.71C99.1412 54.0517 98.9027 53.2723 100.381 49.992C100.764 49.0631 101.271 48.206 101.884 47.4504C102.367 46.8745 103.443 45.6205 105.078 45.3326C105.574 45.2458 106.686 45.0488 107.144 45.7561C107.469 46.2602 107.332 47.01 107.144 47.4504C106.911 48.0181 106.507 48.2786 105.829 48.7212C105.382 49.0134 104.366 49.7251 103.575 50.2036C101.251 51.6077 100.917 51.8979 100.569 52.3214C100.143 52.8468 99.6297 53.5055 99.6297 54.4393C99.6297 54.5622 99.6616 55.852 100.569 56.3454C101.08 56.6227 101.817 56.6207 102.26 56.1336C102.763 55.5809 102.711 54.5981 102.448 54.0157C102.226 53.5265 101.895 53.4079 101.884 52.9568C101.891 52.794 101.928 52.6345 101.993 52.4887C102.058 52.343 102.149 52.2138 102.26 52.1098C102.635 51.7604 103.117 51.8979 103.575 51.8979C104.138 51.8979 104.758 51.5507 106.017 50.839C107.42 50.047 108.121 49.6488 108.459 49.1447C108.774 48.6644 108.988 48.11 109.085 47.5232C109.183 46.9364 109.162 46.3325 109.023 45.7561C108.382 43.2613 105.604 42.8123 105.454 42.7912C103.423 42.4991 101.862 43.9074 101.696 44.062C100.905 44.799 99.7218 46.4064 98.8782 47.8741C98.6771 48.2236 98.2902 48.9202 97.7511 48.9331C97.347 48.9331 97.0974 48.5646 96.8118 48.2977C95.9213 47.4633 94.6325 47.6474 93.0545 47.8741C91.0818 48.1579 91.1608 48.6406 89.2972 48.9331C88.1137 49.1298 86.9111 49.1298 85.7278 48.9331C83.7853 48.5983 83.3756 47.946 81.7827 48.0858C81.0852 48.1681 80.3944 48.3096 79.716 48.5093C78.4255 48.8587 78.1644 49.0919 77.4618 49.1447C76.6108 49.2084 76.1072 48.933 75.0194 48.5093C72.7558 47.6283 72.8986 48.0286 70.8864 47.2388C69.5353 46.703 68.2173 46.0662 66.9412 45.3326C65.4364 44.4389 64.3018 43.5535 63.5597 44.062Z" fill="#874995"/>
<path d="M85.3523 42.7912C85.666 42.1199 85.4875 41.6835 85.9157 41.3088C86.376 40.9064 87.0429 41.0102 87.6065 41.0969C88.1702 41.1837 88.4895 41.2345 88.7338 41.5205C89.1095 41.944 88.9027 42.4163 89.2974 43.0029C89.4438 43.2148 89.6035 43.3525 90.0487 43.6383C91.1909 44.3711 91.5686 44.4092 92.3032 44.9091C92.7785 45.233 93.712 45.8664 93.6181 46.3915C93.5636 46.6943 93.1879 46.847 92.6789 47.0269C91.2078 47.5458 90.4715 47.804 89.6729 47.8739C88.0856 48.0117 87.3736 47.8739 84.4129 47.6623C81.7826 47.4779 80.9731 47.4928 80.8435 47.0269C80.6255 46.2433 82.5341 44.8307 82.722 44.6972C83.9865 43.759 84.8674 43.8246 85.3523 42.7912Z" fill="#874995"/>
<path d="M83.4737 61.64C82.6358 61.9195 82.85 62.8642 81.4073 64.3932C81.071 64.7491 80.8323 64.9396 80.8437 65.2402C80.8586 65.63 81.2832 66.028 82.5343 66.511C83.8688 67.0157 85.2607 67.301 86.6673 67.3581C89.1586 67.4894 90.836 67.2416 92.1155 66.9345C94.3097 66.4072 94.5163 65.8969 94.5576 65.664C94.5991 65.4308 94.5088 65.2043 93.2427 63.5459C92.1041 62.0635 91.9577 61.9428 91.7397 61.8519C91.1123 61.5934 90.932 61.9597 89.2976 62.0635C88.8654 62.091 89.0439 62.0635 87.4188 62.0635C85.9158 62.0635 85.9158 62.1017 85.5403 62.0635C84.0842 61.9111 84.0467 61.4494 83.4737 61.64Z" fill="#874995"/>
<path d="M41.5663 5.88391L42.6891 8.90401L45.723 10.0216L42.6891 11.1391L41.5663 14.1592L40.4438 11.1391L37.4097 10.0216L40.4438 8.90401L41.5663 5.88391Z" fill="white"/>
<path d="M102.311 8.17712L103.434 11.1972L106.468 12.3148L103.434 13.4323L102.311 16.4524L101.188 13.4323L98.1543 12.3148L101.188 11.1972L102.311 8.17712Z" fill="white"/>
<path d="M138.823 8.17712L140.01 11.5975L143.216 12.8632L140.01 14.1288L138.823 17.5492L137.637 14.1288L134.431 12.8632L137.637 11.5975L138.823 8.17712Z" fill="white"/>
</g>
</g>
</g>
<defs>
<clipPath id="clip0_62_366">
<rect width="164" height="67" fill="white" transform="translate(0 0.5)"/>
</clipPath>
</defs>
</svg>
