<svg width="25" height="25" viewBox="0 0 25 25" fill="none" xmlns="http://www.w3.org/2000/svg">
<g id="Iconsax/Linear/searchnormal1">
<path id="Vector" d="M22.5 22.5L20.5 20.5M12 21.5C13.2476 21.5 14.4829 21.2543 15.6355 20.7769C16.7881 20.2994 17.8354 19.5997 18.7175 18.7175C19.5997 17.8354 20.2994 16.7881 20.7769 15.6355C21.2543 14.4829 21.5 13.2476 21.5 12C21.5 10.7524 21.2543 9.5171 20.7769 8.36451C20.2994 7.21191 19.5997 6.16464 18.7175 5.28249C17.8354 4.40033 16.7881 3.70056 15.6355 3.22314C14.4829 2.74572 13.2476 2.5 12 2.5C9.48044 2.5 7.06408 3.50089 5.28249 5.28249C3.50089 7.06408 2.5 9.48044 2.5 12C2.5 14.5196 3.50089 16.9359 5.28249 18.7175C7.06408 20.4991 9.48044 21.5 12 21.5Z" stroke="#B8B8B8" stroke-width="1.5" stroke-linecap="round" stroke-linejoin="round"/>
</g>
</svg>
